<svg height="512pt" viewBox="0 -20 512 512" width="512pt" xmlns="http://www.w3.org/2000/svg"><path d="m442.878906 69.121094c-44.574218-44.574219-103.839844-69.121094-166.878906-69.121094s-122.304688 24.546875-166.878906 69.121094c-44.574219 44.574218-69.121094 103.839844-69.121094 166.878906 0 31.207031 5.964844 61.367188 17.710938 89.828125-32.988282 7.441406-57.710938 36.964844-57.710938 72.171875 0 40.804688 33.195312 74 74 74h152c6.140625 0 12.105469-.765625 17.8125-2.179688.027344.003907.054688.011719.082031.015626 10.570313 1.433593 21.371094 2.164062 32.105469 2.164062 50.9375 0 99.441406-15.972656 140.269531-46.1875 4.4375-3.289062 5.371094-9.550781 2.085938-13.988281-3.285157-4.441407-9.546875-5.375-13.984375-2.089844-37.21875 27.546875-81.414063 42.152344-127.84375 42.261719 14.429687-13.515625 23.472656-32.714844 23.472656-53.996094 0-30.453125-18.492188-56.660156-44.835938-68h55.488282v80.855469c0 4.136719 2.546875 7.847656 6.40625 9.332031 1.167968.449219 2.386718.667969 3.589844.667969 2.773437 0 5.488281-1.15625 7.421874-3.292969l37.367188-41.34375c3.292969-3.644531 8-5.734375 12.910156-5.734375 20.621094 0 37.398438-16.777344 37.398438-37.398437v-39.628907c0-5.003906 4.070312-9.074219 9.074218-9.074219h8.800782c16.03125 0 29.074218-13.042968 29.074218-29.074218v-21.597656c0-16.03125-13.042968-29.070313-29.074218-29.070313-5.003906 0-9.070313-4.070313-9.070313-9.074219 0-4.605468-.953125-8.992187-2.667969-12.976562h63.429688c4.363281 17.085937 6.6875 34.980468 6.6875 53.410156 0 46.507812-14.550781 90.804688-42.074219 128.109375-3.277343 4.441406-2.332031 10.703125 2.109375 13.984375 1.789063 1.316406 3.867188 1.953125 5.929688 1.953125 3.066406 0 6.09375-1.40625 8.054687-4.0625 30.082031-40.769531 45.980469-89.171875 45.980469-139.984375 0-63.039062-24.546875-122.304688-69.121094-166.878906zm-69.378906-25.828125c-5.988281 9.804687-9.230469 21.136719-9.230469 32.75 0 5.300781-4.3125 9.609375-9.609375 9.609375-24.648437 0-44.695312 20.050781-44.695312 44.699218 0 12.15625 4.1875 23.351563 11.179687 32.238282h-31.066406c-27.484375 0-49.851563 22.363281-49.851563 49.851562v27.707032c0 11.1875 3.707032 21.523437 9.953126 29.851562h-6.179688v-4c0-5.519531-4.476562-10-10-10h-26v-30c0-5.523438-4.476562-10-10-10h-88c-5.523438 0-10 4.476562-10 10v30h-26c-5.523438 0-10 4.480469-10 10v11.703125c-2.65625-13.613281-4-27.539063-4-41.703125 0-20.984375 3.019531-41.277344 8.628906-60.476562h72.53125c19.113282 0 34.660156-15.546876 34.660156-34.660157v-1.011719c0-8.082031 6.578126-14.660156 14.660157-14.660156 19.113281 0 34.660156-15.546875 34.660156-34.660156v-5.394531c0-19.109375-15.546875-34.660157-34.660156-34.660157h-24.988281c32.355468-19.339843 70.152343-30.476562 110.507812-30.476562 35.0625 0 68.195312 8.402344 97.5 23.292969zm-37.5 246.707031v20h-92v-20zm-148-34h-68v-20h68zm-78 20h114v48h-140v-48zm27.433594-205.558594c.238281.019532.476562.035156.71875.035156h52.328125c8.085937 0 14.660156 6.578126 14.660156 14.660157v5.394531c0 8.085938-6.574219 14.660156-14.660156 14.660156-19.109375 0-34.660157 15.550782-34.660157 34.660156v1.011719c0 8.085938-6.574218 14.660157-14.660156 14.660157h-65.601562c13.394531-33.238282 34.824218-62.40625 61.875-85.082032zm142.566406 327.558594c0 29.773438-24.226562 54-54 54h-152c-29.773438 0-54-24.226562-54-54s24.226562-54 54-54h152c29.773438 0 54 24.226562 54 54zm124.550781-202.433594c0 16.03125 13.042969 29.074219 29.070313 29.074219 5.003906 0 9.074218 4.070313 9.074218 9.070313v21.597656c0 5.003906-4.070312 9.074218-9.074218 9.074218h-8.800782c-16.03125 0-29.074218 13.042969-29.074218 29.074219v39.628907c0 9.59375-7.804688 17.398437-17.398438 17.398437-10.554687 0-20.667968 4.492187-27.746094 12.320313l-19.949218 22.074218v-54.878906h5.347656v.25c0 5.523438 4.476562 10 10 10s10-4.476562 10-10v-60.5c0-5.523438-4.476562-10-10-10s-10 4.476562-10 10v.25h-45.921875c-16.457031 0-29.851563-13.390625-29.851563-29.851562v-27.707032c0-16.460937 13.394532-29.851562 29.851563-29.851562h101.496094c7.15625 0 12.976562 5.820312 12.976562 12.976562zm-12.976562-32.976562h-29.375c-17.773438 0-32.238281-14.460938-32.238281-32.238282 0-13.621093 11.078124-24.699218 24.695312-24.699218 16.328125 0 29.613281-13.285156 29.613281-29.609375 0-8.136719 2.324219-16.066407 6.625-22.867188 40.363281 25.457031 71.753907 63.894531 88.253907 109.414063zm0 0"/><path d="m429.109375 388.359375-.289063.289063c-3.882812 3.929687-3.84375 10.261718.082032 14.144531 1.949218 1.925781 4.488281 2.886719 7.03125 2.886719 2.578125 0 5.15625-.992188 7.109375-2.96875l.207031-.207032c3.90625-3.90625 3.90625-10.238281 0-14.144531-3.902344-3.90625-10.234375-3.90625-14.140625 0zm0 0"/><path d="m200 398c0 16.542969 13.457031 30 30 30s30-13.457031 30-30-13.457031-30-30-30-30 13.457031-30 30zm30-10c5.515625 0 10 4.484375 10 10s-4.484375 10-10 10-10-4.484375-10-10 4.484375-10 10-10zm0 0"/><path d="m150 368c-16.542969 0-30 13.457031-30 30s13.457031 30 30 30 30-13.457031 30-30-13.457031-30-30-30zm0 40c-5.515625 0-10-4.484375-10-10s4.484375-10 10-10 10 4.484375 10 10-4.484375 10-10 10zm0 0"/><path d="m70 368c-16.542969 0-30 13.457031-30 30s13.457031 30 30 30 30-13.457031 30-30-13.457031-30-30-30zm0 40c-5.515625 0-10-4.484375-10-10s4.484375-10 10-10 10 4.484375 10 10-4.484375 10-10 10zm0 0"/><path d="m291.332031 70.652344h45c5.523438 0 10-4.476563 10-10 0-5.519532-4.476562-10-10-10h-45c-5.519531 0-10 4.480468-10 10 0 5.523437 4.480469 10 10 10zm0 0"/><path d="m250.230469 70.660156c2.628906 0 5.207031-1.070312 7.070312-2.929687 1.859375-1.871094 2.929688-4.441407 2.929688-7.082031 0-2.628907-1.070313-5.207032-2.929688-7.070313-1.863281-1.859375-4.441406-2.929687-7.070312-2.929687-2.632813 0-5.210938 1.070312-7.070313 2.929687-1.859375 1.863281-2.929687 4.441406-2.929687 7.070313 0 2.640624 1.070312 5.210937 2.929687 7.082031 1.859375 1.859375 4.441406 2.929687 7.070313 2.929687zm0 0"/></svg>